<mxfile host="app.diagrams.net" modified="2021-07-21T19:02:40.527Z" agent="5.0 (Windows NT 10.0; Win64; x64) AppleWebKit/537.36 (KHTML, like Gecko) Chrome/91.0.4472.164 Safari/537.36" etag="aafVBfT-si5joDqUujZ9" version="14.9.1" type="github" pages="2">
  <diagram id="g1-X68YlluDqBbjLX4cY" name="Page-1">
    <mxGraphModel dx="1102" dy="521" grid="1" gridSize="10" guides="1" tooltips="1" connect="1" arrows="1" fold="1" page="1" pageScale="1" pageWidth="850" pageHeight="1100" math="0" shadow="0">
      <root>
        <mxCell id="0" />
        <mxCell id="1" parent="0" />
        <mxCell id="d93354d6_1s3kLpstOFZ-1" value="Address" style="swimlane;fontStyle=1;align=center;verticalAlign=top;childLayout=stackLayout;horizontal=1;startSize=26;horizontalStack=0;resizeParent=1;resizeParentMax=0;resizeLast=0;collapsible=1;marginBottom=0;" parent="1" vertex="1">
          <mxGeometry x="150" y="60" width="380" height="190" as="geometry" />
        </mxCell>
        <mxCell id="d93354d6_1s3kLpstOFZ-2" value="+streetÂ  : String&#xa;&#xa;+city : String&#xa;&#xa;+state : String&#xa;" style="text;strokeColor=none;fillColor=none;align=left;verticalAlign=top;spacingLeft=4;spacingRight=4;overflow=hidden;rotatable=0;points=[[0,0.5],[1,0.5]];portConstraint=eastwest;" parent="d93354d6_1s3kLpstOFZ-1" vertex="1">
          <mxGeometry y="26" width="380" height="94" as="geometry" />
        </mxCell>
        <mxCell id="d93354d6_1s3kLpstOFZ-3" value="" style="line;strokeWidth=1;fillColor=none;align=left;verticalAlign=middle;spacingTop=-1;spacingLeft=3;spacingRight=3;rotatable=0;labelPosition=right;points=[];portConstraint=eastwest;" parent="d93354d6_1s3kLpstOFZ-1" vertex="1">
          <mxGeometry y="120" width="380" height="8" as="geometry" />
        </mxCell>
        <mxCell id="d93354d6_1s3kLpstOFZ-4" value="+getAddressDetails() : String&#xa;+updateAddressdetails(addressDetails:String) : void" style="text;strokeColor=none;fillColor=none;align=left;verticalAlign=top;spacingLeft=4;spacingRight=4;overflow=hidden;rotatable=0;points=[[0,0.5],[1,0.5]];portConstraint=eastwest;" parent="d93354d6_1s3kLpstOFZ-1" vertex="1">
          <mxGeometry y="128" width="380" height="62" as="geometry" />
        </mxCell>
        <mxCell id="d93354d6_1s3kLpstOFZ-11" value="Product" style="swimlane;fontStyle=1;align=center;verticalAlign=top;childLayout=stackLayout;horizontal=1;startSize=20;horizontalStack=0;resizeParent=1;resizeParentMax=0;resizeLast=0;collapsible=1;marginBottom=0;" parent="1" vertex="1">
          <mxGeometry x="100" y="330" width="190" height="330" as="geometry" />
        </mxCell>
        <mxCell id="d93354d6_1s3kLpstOFZ-12" value="+id: int&#xa;&#xa;+name: String&#xa;&#xa;+category: String&#xa;&#xa;+salesPrice: float&#xa;&#xa;+cost: float&#xa;&#xa;+quantity:int&#xa;&#xa;+active: boolean&#xa;" style="text;strokeColor=none;fillColor=none;align=left;verticalAlign=top;spacingLeft=4;spacingRight=4;overflow=hidden;rotatable=0;points=[[0,0.5],[1,0.5]];portConstraint=eastwest;" parent="d93354d6_1s3kLpstOFZ-11" vertex="1">
          <mxGeometry y="20" width="190" height="190" as="geometry" />
        </mxCell>
        <mxCell id="d93354d6_1s3kLpstOFZ-13" value="" style="line;strokeWidth=1;fillColor=none;align=left;verticalAlign=middle;spacingTop=-1;spacingLeft=3;spacingRight=3;rotatable=0;labelPosition=right;points=[];portConstraint=eastwest;" parent="d93354d6_1s3kLpstOFZ-11" vertex="1">
          <mxGeometry y="210" width="190" height="8" as="geometry" />
        </mxCell>
        <mxCell id="d93354d6_1s3kLpstOFZ-14" value="+getProfitOrLoss(): float&#xa;&#xa;+activate(): void&#xa;&#xa;+deactivate(): void&#xa;&#xa;+isBelowThreshold(): boolean&#xa;" style="text;strokeColor=none;fillColor=none;align=left;verticalAlign=top;spacingLeft=4;spacingRight=4;overflow=hidden;rotatable=0;points=[[0,0.5],[1,0.5]];portConstraint=eastwest;" parent="d93354d6_1s3kLpstOFZ-11" vertex="1">
          <mxGeometry y="218" width="190" height="112" as="geometry" />
        </mxCell>
        <mxCell id="npoqJX1Z7pXEIgN-4MiB-2" value="" style="html=1;whiteSpace=wrap;aspect=fixed;shape=isoRectangle;fillColor=#FFFFFF;" parent="1" vertex="1">
          <mxGeometry x="330" y="376.25" width="29.16" height="17.5" as="geometry" />
        </mxCell>
        <mxCell id="npoqJX1Z7pXEIgN-4MiB-5" value="Order" style="swimlane;fontStyle=1;align=center;verticalAlign=top;childLayout=stackLayout;horizontal=1;startSize=26;horizontalStack=0;resizeParent=1;resizeParentMax=0;resizeLast=0;collapsible=1;marginBottom=0;strokeColor=#000000;fillColor=#FFFFFF;" parent="1" vertex="1">
          <mxGeometry x="360" y="320" width="180" height="244" as="geometry" />
        </mxCell>
        <mxCell id="npoqJX1Z7pXEIgN-4MiB-6" value="+ id: int&#xa;&#xa;+vendor: Vendor&#xa;&#xa;+ date: String&#xa;&#xa;+orderedProduct: Product&#xa;&#xa;+orderedQuantity: int&#xa;&#xa;+amountPaid: float" style="text;strokeColor=none;fillColor=none;align=left;verticalAlign=top;spacingLeft=4;spacingRight=4;overflow=hidden;rotatable=0;points=[[0,0.5],[1,0.5]];portConstraint=eastwest;" parent="npoqJX1Z7pXEIgN-4MiB-5" vertex="1">
          <mxGeometry y="26" width="180" height="184" as="geometry" />
        </mxCell>
        <mxCell id="npoqJX1Z7pXEIgN-4MiB-7" value="" style="line;strokeWidth=1;fillColor=none;align=left;verticalAlign=middle;spacingTop=-1;spacingLeft=3;spacingRight=3;rotatable=0;labelPosition=right;points=[];portConstraint=eastwest;" parent="npoqJX1Z7pXEIgN-4MiB-5" vertex="1">
          <mxGeometry y="210" width="180" height="8" as="geometry" />
        </mxCell>
        <mxCell id="npoqJX1Z7pXEIgN-4MiB-8" value="- updateVendorCredit(): void" style="text;strokeColor=none;fillColor=none;align=left;verticalAlign=top;spacingLeft=4;spacingRight=4;overflow=hidden;rotatable=0;points=[[0,0.5],[1,0.5]];portConstraint=eastwest;" parent="npoqJX1Z7pXEIgN-4MiB-5" vertex="1">
          <mxGeometry y="218" width="180" height="26" as="geometry" />
        </mxCell>
        <mxCell id="npoqJX1Z7pXEIgN-4MiB-9" value="1" style="text;html=1;align=center;verticalAlign=middle;resizable=0;points=[];autosize=1;strokeColor=none;" parent="1" vertex="1">
          <mxGeometry x="290" y="360" width="20" height="20" as="geometry" />
        </mxCell>
        <mxCell id="npoqJX1Z7pXEIgN-4MiB-10" value="1" style="text;html=1;align=center;verticalAlign=middle;resizable=0;points=[];autosize=1;strokeColor=none;" parent="1" vertex="1">
          <mxGeometry x="340" y="360" width="20" height="20" as="geometry" />
        </mxCell>
        <mxCell id="npoqJX1Z7pXEIgN-4MiB-22" value="BusinessPartner" style="swimlane;fontStyle=1;align=center;verticalAlign=top;childLayout=stackLayout;horizontal=1;startSize=26;horizontalStack=0;resizeParent=1;resizeParentMax=0;resizeLast=0;collapsible=1;marginBottom=0;strokeColor=#000000;fillColor=#FFFFFF;" parent="1" vertex="1">
          <mxGeometry x="660" y="60" width="160" height="150" as="geometry" />
        </mxCell>
        <mxCell id="npoqJX1Z7pXEIgN-4MiB-23" value="+id: int&#xa;&#xa;+address: Address&#xa;&#xa;+contact:Contact" style="text;strokeColor=none;fillColor=none;align=left;verticalAlign=top;spacingLeft=4;spacingRight=4;overflow=hidden;rotatable=0;points=[[0,0.5],[1,0.5]];portConstraint=eastwest;" parent="npoqJX1Z7pXEIgN-4MiB-22" vertex="1">
          <mxGeometry y="26" width="160" height="74" as="geometry" />
        </mxCell>
        <mxCell id="npoqJX1Z7pXEIgN-4MiB-24" value="" style="line;strokeWidth=1;fillColor=none;align=left;verticalAlign=middle;spacingTop=-1;spacingLeft=3;spacingRight=3;rotatable=0;labelPosition=right;points=[];portConstraint=eastwest;" parent="npoqJX1Z7pXEIgN-4MiB-22" vertex="1">
          <mxGeometry y="100" width="160" height="8" as="geometry" />
        </mxCell>
        <mxCell id="npoqJX1Z7pXEIgN-4MiB-25" value="+getContact(): contact&#xa;+getAddress():Address" style="text;strokeColor=none;fillColor=none;align=left;verticalAlign=top;spacingLeft=4;spacingRight=4;overflow=hidden;rotatable=0;points=[[0,0.5],[1,0.5]];portConstraint=eastwest;" parent="npoqJX1Z7pXEIgN-4MiB-22" vertex="1">
          <mxGeometry y="108" width="160" height="42" as="geometry" />
        </mxCell>
        <mxCell id="npoqJX1Z7pXEIgN-4MiB-26" value="" style="line;strokeWidth=1;rotatable=0;dashed=0;labelPosition=right;align=left;verticalAlign=middle;spacingTop=0;spacingLeft=6;points=[];portConstraint=eastwest;fillColor=#FFFFFF;" parent="1" vertex="1">
          <mxGeometry x="530" y="120" width="120" height="10" as="geometry" />
        </mxCell>
        <mxCell id="npoqJX1Z7pXEIgN-4MiB-27" value="" style="html=1;whiteSpace=wrap;aspect=fixed;shape=isoRectangle;strokeColor=#000000;fillColor=#000000;" parent="1" vertex="1">
          <mxGeometry x="626.67" y="115" width="33.33" height="20" as="geometry" />
        </mxCell>
        <mxCell id="npoqJX1Z7pXEIgN-4MiB-28" value="1" style="text;html=1;align=center;verticalAlign=middle;resizable=0;points=[];autosize=1;strokeColor=none;" parent="1" vertex="1">
          <mxGeometry x="530" y="100" width="20" height="20" as="geometry" />
        </mxCell>
        <mxCell id="npoqJX1Z7pXEIgN-4MiB-29" value="1" style="text;html=1;align=center;verticalAlign=middle;resizable=0;points=[];autosize=1;strokeColor=none;" parent="1" vertex="1">
          <mxGeometry x="640" y="100" width="20" height="20" as="geometry" />
        </mxCell>
        <mxCell id="npoqJX1Z7pXEIgN-4MiB-31" value="Vendor" style="swimlane;fontStyle=1;align=center;verticalAlign=top;childLayout=stackLayout;horizontal=1;startSize=26;horizontalStack=0;resizeParent=1;resizeParentMax=0;resizeLast=0;collapsible=1;marginBottom=0;strokeColor=#000000;fillColor=#FFFFFF;" parent="1" vertex="1">
          <mxGeometry x="600" y="410" width="290" height="220" as="geometry" />
        </mxCell>
        <mxCell id="npoqJX1Z7pXEIgN-4MiB-32" value="+vendorName: String&#xa;&#xa;+credit: float&#xa;&#xa;+product: Product [0..100]&#xa;&#xa;+order: Order [0..100]" style="text;strokeColor=none;fillColor=none;align=left;verticalAlign=top;spacingLeft=4;spacingRight=4;overflow=hidden;rotatable=0;points=[[0,0.5],[1,0.5]];portConstraint=eastwest;" parent="npoqJX1Z7pXEIgN-4MiB-31" vertex="1">
          <mxGeometry y="26" width="290" height="104" as="geometry" />
        </mxCell>
        <mxCell id="npoqJX1Z7pXEIgN-4MiB-33" value="" style="line;strokeWidth=1;fillColor=none;align=left;verticalAlign=middle;spacingTop=-1;spacingLeft=3;spacingRight=3;rotatable=0;labelPosition=right;points=[];portConstraint=eastwest;" parent="npoqJX1Z7pXEIgN-4MiB-31" vertex="1">
          <mxGeometry y="130" width="290" height="8" as="geometry" />
        </mxCell>
        <mxCell id="npoqJX1Z7pXEIgN-4MiB-34" value="+checkDue(): float&#xa;&#xa;+fetchProductByld(id : int): Product&#xa;&#xa;+fetchProductByName(name : String): Product" style="text;strokeColor=none;fillColor=none;align=left;verticalAlign=top;spacingLeft=4;spacingRight=4;overflow=hidden;rotatable=0;points=[[0,0.5],[1,0.5]];portConstraint=eastwest;" parent="npoqJX1Z7pXEIgN-4MiB-31" vertex="1">
          <mxGeometry y="138" width="290" height="82" as="geometry" />
        </mxCell>
        <mxCell id="npoqJX1Z7pXEIgN-4MiB-37" value="" style="line;strokeWidth=1;fillColor=none;align=left;verticalAlign=middle;spacingTop=-1;spacingLeft=3;spacingRight=3;rotatable=0;labelPosition=right;points=[];portConstraint=eastwest;" parent="1" vertex="1">
          <mxGeometry x="290" y="600" width="280" height="8" as="geometry" />
        </mxCell>
        <mxCell id="npoqJX1Z7pXEIgN-4MiB-38" value="" style="line;strokeWidth=1;fillColor=none;align=left;verticalAlign=middle;spacingTop=-1;spacingLeft=3;spacingRight=3;rotatable=0;labelPosition=right;points=[];portConstraint=eastwest;" parent="1" vertex="1">
          <mxGeometry x="290" y="381" width="40" height="8" as="geometry" />
        </mxCell>
        <mxCell id="npoqJX1Z7pXEIgN-4MiB-39" value="" style="html=1;whiteSpace=wrap;aspect=fixed;shape=isoRectangle;strokeColor=#000000;fillColor=#FFFFFF;" parent="1" vertex="1">
          <mxGeometry x="570" y="594" width="33.33" height="20" as="geometry" />
        </mxCell>
        <mxCell id="npoqJX1Z7pXEIgN-4MiB-40" value="*" style="text;html=1;align=center;verticalAlign=middle;resizable=0;points=[];autosize=1;strokeColor=none;" parent="1" vertex="1">
          <mxGeometry x="290" y="588" width="20" height="20" as="geometry" />
        </mxCell>
        <mxCell id="npoqJX1Z7pXEIgN-4MiB-41" value="*" style="text;html=1;align=center;verticalAlign=middle;resizable=0;points=[];autosize=1;strokeColor=none;" parent="1" vertex="1">
          <mxGeometry x="570" y="580" width="20" height="20" as="geometry" />
        </mxCell>
        <mxCell id="npoqJX1Z7pXEIgN-4MiB-42" value="" style="line;strokeWidth=1;rotatable=0;dashed=0;labelPosition=right;align=left;verticalAlign=middle;spacingTop=0;spacingLeft=6;points=[];portConstraint=eastwest;fillColor=#FFFFFF;" parent="1" vertex="1">
          <mxGeometry x="540" y="460" width="60" height="10" as="geometry" />
        </mxCell>
        <mxCell id="npoqJX1Z7pXEIgN-4MiB-43" value="*" style="text;html=1;align=center;verticalAlign=middle;resizable=0;points=[];autosize=1;strokeColor=none;" parent="1" vertex="1">
          <mxGeometry x="535" y="450" width="20" height="20" as="geometry" />
        </mxCell>
        <mxCell id="npoqJX1Z7pXEIgN-4MiB-44" value="1" style="text;html=1;align=center;verticalAlign=middle;resizable=0;points=[];autosize=1;strokeColor=none;" parent="1" vertex="1">
          <mxGeometry x="580" y="450" width="20" height="20" as="geometry" />
        </mxCell>
        <mxCell id="npoqJX1Z7pXEIgN-4MiB-54" value="Customer" style="swimlane;fontStyle=1;align=center;verticalAlign=top;childLayout=stackLayout;horizontal=1;startSize=26;horizontalStack=0;resizeParent=1;resizeParentMax=0;resizeLast=0;collapsible=1;marginBottom=0;strokeColor=#000000;fillColor=#FFFFFF;" parent="1" vertex="1">
          <mxGeometry x="940" y="410" width="180" height="120" as="geometry" />
        </mxCell>
        <mxCell id="npoqJX1Z7pXEIgN-4MiB-55" value="+transactionCounter: int" style="text;strokeColor=none;fillColor=none;align=left;verticalAlign=top;spacingLeft=4;spacingRight=4;overflow=hidden;rotatable=0;points=[[0,0.5],[1,0.5]];portConstraint=eastwest;" parent="npoqJX1Z7pXEIgN-4MiB-54" vertex="1">
          <mxGeometry y="26" width="180" height="26" as="geometry" />
        </mxCell>
        <mxCell id="npoqJX1Z7pXEIgN-4MiB-56" value="" style="line;strokeWidth=1;fillColor=none;align=left;verticalAlign=middle;spacingTop=-1;spacingLeft=3;spacingRight=3;rotatable=0;labelPosition=right;points=[];portConstraint=eastwest;" parent="npoqJX1Z7pXEIgN-4MiB-54" vertex="1">
          <mxGeometry y="52" width="180" height="8" as="geometry" />
        </mxCell>
        <mxCell id="npoqJX1Z7pXEIgN-4MiB-57" value="+getTransactionCount(): int&#xa;&#xa;+calculateDiscount():float" style="text;strokeColor=none;fillColor=none;align=left;verticalAlign=top;spacingLeft=4;spacingRight=4;overflow=hidden;rotatable=0;points=[[0,0.5],[1,0.5]];portConstraint=eastwest;" parent="npoqJX1Z7pXEIgN-4MiB-54" vertex="1">
          <mxGeometry y="60" width="180" height="60" as="geometry" />
        </mxCell>
        <mxCell id="npoqJX1Z7pXEIgN-4MiB-59" value="" style="endArrow=none;html=1;exitX=0.229;exitY=-0.01;exitDx=0;exitDy=0;exitPerimeter=0;entryX=0.5;entryY=1;entryDx=0;entryDy=0;entryPerimeter=0;" parent="1" source="npoqJX1Z7pXEIgN-4MiB-31" target="npoqJX1Z7pXEIgN-4MiB-60" edge="1">
          <mxGeometry width="50" height="50" relative="1" as="geometry">
            <mxPoint x="715" y="270" as="sourcePoint" />
            <mxPoint x="760" y="240" as="targetPoint" />
          </mxGeometry>
        </mxCell>
        <mxCell id="npoqJX1Z7pXEIgN-4MiB-60" value="" style="verticalLabelPosition=bottom;verticalAlign=top;html=1;shape=mxgraph.basic.acute_triangle;dx=0.64;strokeColor=#000000;fillColor=#FFFFFF;rotation=30;" parent="1" vertex="1">
          <mxGeometry x="750" y="210" width="20" height="20.06" as="geometry" />
        </mxCell>
        <mxCell id="npoqJX1Z7pXEIgN-4MiB-62" value="" style="endArrow=none;html=1;entryX=0.25;entryY=0;entryDx=0;entryDy=0;" parent="1" target="npoqJX1Z7pXEIgN-4MiB-54" edge="1">
          <mxGeometry width="50" height="50" relative="1" as="geometry">
            <mxPoint x="810" y="230" as="sourcePoint" />
            <mxPoint x="960" y="280" as="targetPoint" />
            <Array as="points" />
          </mxGeometry>
        </mxCell>
        <mxCell id="npoqJX1Z7pXEIgN-4MiB-63" value="" style="verticalLabelPosition=bottom;verticalAlign=top;html=1;shape=mxgraph.basic.acute_triangle;dx=0.5;strokeColor=#000000;fillColor=#FFFFFF;rotation=-30;" parent="1" vertex="1">
          <mxGeometry x="790" y="210" width="30" height="20" as="geometry" />
        </mxCell>
        <mxCell id="npoqJX1Z7pXEIgN-4MiB-64" value="Contact" style="swimlane;fontStyle=1;align=center;verticalAlign=top;childLayout=stackLayout;horizontal=1;startSize=26;horizontalStack=0;resizeParent=1;resizeParentMax=0;resizeLast=0;collapsible=1;marginBottom=0;strokeColor=#000000;fillColor=#FFFFFF;" parent="1" vertex="1">
          <mxGeometry x="893" y="60" width="310" height="190" as="geometry" />
        </mxCell>
        <mxCell id="npoqJX1Z7pXEIgN-4MiB-65" value="+name: String&#xa;&#xa;+phone: String&#xa;&#xa;+email: string" style="text;strokeColor=none;fillColor=none;align=left;verticalAlign=top;spacingLeft=4;spacingRight=4;overflow=hidden;rotatable=0;points=[[0,0.5],[1,0.5]];portConstraint=eastwest;" parent="npoqJX1Z7pXEIgN-4MiB-64" vertex="1">
          <mxGeometry y="26" width="310" height="84" as="geometry" />
        </mxCell>
        <mxCell id="npoqJX1Z7pXEIgN-4MiB-66" value="" style="line;strokeWidth=1;fillColor=none;align=left;verticalAlign=middle;spacingTop=-1;spacingLeft=3;spacingRight=3;rotatable=0;labelPosition=right;points=[];portConstraint=eastwest;" parent="npoqJX1Z7pXEIgN-4MiB-64" vertex="1">
          <mxGeometry y="110" width="310" height="8" as="geometry" />
        </mxCell>
        <mxCell id="npoqJX1Z7pXEIgN-4MiB-67" value="+getContactDetails(): String&#xa;&#xa;+updateContactDetails(contactDetails: String): void" style="text;strokeColor=none;fillColor=none;align=left;verticalAlign=top;spacingLeft=4;spacingRight=4;overflow=hidden;rotatable=0;points=[[0,0.5],[1,0.5]];portConstraint=eastwest;" parent="npoqJX1Z7pXEIgN-4MiB-64" vertex="1">
          <mxGeometry y="118" width="310" height="72" as="geometry" />
        </mxCell>
        <mxCell id="npoqJX1Z7pXEIgN-4MiB-68" value="" style="line;strokeWidth=1;fillColor=none;align=left;verticalAlign=middle;spacingTop=-1;spacingLeft=3;spacingRight=3;rotatable=0;labelPosition=right;points=[];portConstraint=eastwest;" parent="1" vertex="1">
          <mxGeometry x="850" y="112" width="40" height="8" as="geometry" />
        </mxCell>
        <mxCell id="npoqJX1Z7pXEIgN-4MiB-69" value="" style="html=1;whiteSpace=wrap;aspect=fixed;shape=isoRectangle;strokeColor=#000000;fillColor=#000000;" parent="1" vertex="1">
          <mxGeometry x="820" y="106" width="33.33" height="20" as="geometry" />
        </mxCell>
        <mxCell id="npoqJX1Z7pXEIgN-4MiB-70" value="1" style="text;html=1;align=center;verticalAlign=middle;resizable=0;points=[];autosize=1;strokeColor=none;" parent="1" vertex="1">
          <mxGeometry x="820" y="90" width="20" height="20" as="geometry" />
        </mxCell>
        <mxCell id="npoqJX1Z7pXEIgN-4MiB-72" value="1" style="text;html=1;align=center;verticalAlign=middle;resizable=0;points=[];autosize=1;strokeColor=none;" parent="1" vertex="1">
          <mxGeometry x="870" y="90" width="20" height="20" as="geometry" />
        </mxCell>
      </root>
    </mxGraphModel>
  </diagram>
  <diagram id="VDfjP-qgo3CIMhCmv3te" name="Page-2">
    <mxGraphModel dx="1038" dy="579" grid="1" gridSize="10" guides="1" tooltips="1" connect="1" arrows="1" fold="1" page="1" pageScale="1" pageWidth="850" pageHeight="1100" math="0" shadow="0">
      <root>
        <mxCell id="1XI3wL59jvvXQunI_0jn-0" />
        <mxCell id="1XI3wL59jvvXQunI_0jn-1" parent="1XI3wL59jvvXQunI_0jn-0" />
      </root>
    </mxGraphModel>
  </diagram>
</mxfile>
